<?xml version="1.0" encoding="utf-8"?>
<!-- Generator: Adobe Illustrator 24.1.1, SVG Export Plug-In . SVG Version: 6.00 Build 0)  -->
<svg version="1.1" id="Ebene_1" xmlns="http://www.w3.org/2000/svg" xmlns:xlink="http://www.w3.org/1999/xlink" x="0px" y="0px"
	width="272" height="273"  viewBox="0 0 350 275.7" style="enable-background:new 0 0 350 275.7;" xml:space="preserve">
<style type="text/css">
	.st0{opacity:0.36;fill:#FFFFFF;enable-background:new    ;}
	.st1{opacity:0.69;fill:#FFFFFF;enable-background:new    ;}
	.st2{fill:#FFFFFF;}
	.st3{opacity:0.1;fill:#0099CC;enable-background:new    ;}
	.st4{opacity:0.25;fill:#00A3D3;enable-background:new    ;}
	.st5{opacity:0.39;fill:#00A3D3;enable-background:new    ;}
</style>
<g id="Ebene_2_1_">
	<rect x="31.4" y="68.1" class="st0" width="77.7" height="142.4"/>
	<rect x="127.1" y="68.1" class="st1" width="77.7" height="142.4"/>
	<rect x="221.6" y="68.1" class="st2" width="77.7" height="142.4"/>
</g>
<g id="Ebene_1_2_">
	<path class="st2" d="M308.3,12.1H22.9c-4.9,0-8.9,4-8.9,8.9v235.3c0,4.9,4,8.9,8.9,8.9h285.3c4.9,0,8.9-4,8.9-8.9V21
		C317.2,16.1,313.2,12.1,308.3,12.1z M222.6,45.3V29.9h29.8v15.5H222.6z M204.8,45.3H175V29.9h29.8V45.3z M157.3,45.3h-29.8V29.9
		h29.8V45.3z M109.7,45.3H79.9V29.9h29.8V45.3z M109.7,231.9v15.5H79.9v-15.5H109.7z M127.5,231.9h29.8v15.5h-29.8V231.9z
		 M175,231.9h29.8v15.5H175V231.9z M222.6,231.9h29.8v15.5h-29.8V231.9z M299.4,45.3h-29.2V29.9h29.2V45.3z M62.1,29.9v15.5H31.8
		V29.9H62.1z M31.8,231.9h30.3v15.5H31.8V231.9z M270.2,247.4v-15.5h29.2v15.5H270.2z" fill-opacity="0.95"/>
</g>
<g id="Ebene_2_2_">
	<rect x="32" y="68.6" class="st3" width="77.6" height="142.1"/>
	<rect x="127.5" y="68.6" class="st4" width="77.6" height="142.1"/>
	<rect x="221.9" y="68.6" class="st5" width="77.6" height="142.1"/>
</g>
</svg>
