<?xml version="1.0" encoding="utf-8"?>
<!-- Generator: Adobe Illustrator 24.1.1, SVG Export Plug-In . SVG Version: 6.00 Build 0)  -->
<svg version="1.1" id="Ebene_1" xmlns="http://www.w3.org/2000/svg" xmlns:xlink="http://www.w3.org/1999/xlink" x="0px" y="0px"
	 width="272" height="273" viewBox="0 0 350 275.7" style="enable-background:new 0 0 350 275.7;" xml:space="preserve">
<style type="text/css">
	.st0{fill:#00A3D3;}
	.st1{opacity:0.36;fill:#FFFFFF;enable-background:new    ;}
	.st2{opacity:0.69;fill:#FFFFFF;enable-background:new    ;}
	.st3{fill:#FFFFFF;}
</style>
<g id="Ebene_1_1_">
	<path class="st0" d="M308.3,11.5h-286c-4.9,0-8.9,4-8.9,8.9v235.8c0,4.9,4,8.9,8.9,8.9h286c4.9,0,8.9-4,8.9-8.9V20.4
		C317.2,15.5,313.2,11.5,308.3,11.5z M222.4,44.8V29.3h29.8v15.5H222.4z M204.6,44.8h-29.8V29.3h29.8V44.8z M156.9,44.8h-29.8V29.3
		h29.8V44.8z M109.3,44.8H79.4V29.3h29.8V44.8z M109.3,231.8v15.5H79.4v-15.5H109.3z M127.1,231.8h29.8v15.5h-29.8V231.8z
		 M174.7,231.8h29.8v15.5h-29.8V231.8z M222.4,231.8h29.8v15.5h-29.8V231.8z M299.4,44.8h-29.3V29.3h29.3V44.8z M61.6,29.3v15.5
		H31.2V29.3H61.6z M31.2,231.8h30.4v15.5H31.2V231.8z M270.1,247.3v-15.5h29.3v15.5H270.1z"/>
</g>
<g id="Ebene_2_1_">
	<rect x="31.4" y="68.1" class="st1" width="77.7" height="142.4"/>
	<rect x="127.1" y="68.1" class="st2" width="77.7" height="142.4"/>
	<rect x="221.6" y="68.1" class="st3" width="77.7" height="142.4"/>
</g>

</svg>
